<svg xmlns="http://www.w3.org/2000/svg" viewBox="0 0 161 60"><defs><style>.cls-1{fill:#e53229;}.cls-2{fill:#6a6a6a;}</style></defs><title>OA Logo navigation</title><g id="Layer_2" data-name="Layer 2"><g id="Layer_1-2" data-name="Layer 1"><polygon class="cls-1" points="19.26 20.57 31.9 41.46 24.52 36.08 21.45 38.43 17.9 35.25 0 46 19.26 20.57"/><path class="cls-2" d="M105.36,3.66h.16l.89,11.7h7L117.93.12h-4.11l-3.21,11.7h-.16l-1-11.7h-6.94L98,15.36h4.11Zm-14.23-.2h7l1-3.33H88L83.48,15.36H94.74l1-3.33H88.58l.88-3H96l.82-2.82H90.28Zm-7.32,1.4C85.23,0,82.41,0,78.43,0c-4.52,0-7.54.75-9,5.79L68.23,9.73c-1.47,4.94.76,5.75,5.61,5.75,5.5,0,7.1-.93,8.61-6.07l.79-2.66h-7l-.83,2.82h2.83c-.64,2.11-1.32,2.58-3.41,2.58s-3-.28-2.2-3l.74-2.48c.75-2.46,1.11-3.35,4.07-3.35,1.23,0,2.57,0,2.2,1.52ZM70,.12H65.28L60.71,6h-.14l-1-5.87h-4.7L57.39,10,55.8,15.36h4.11L61.5,10ZM54.5.12H49.78L45.34,5.71,44.21.12H39.41l2.15,7.4-6.94,7.84h4.83l4.77-5.87,1.33,5.87h4.78L48.07,7.52Zm-27,11.83c-2.14,0-2.78-.22-2.16-2.5l1-3.43C27,3.76,27.81,3.54,30,3.54s2.82.22,2.16,2.48l-1,3.43c-.68,2.27-1.5,2.5-3.63,2.5m-1,3.53c4.17,0,7.38-.89,8.77-5.59l1.28-4.31C37.85.89,35.17,0,31,0s-7.4.89-8.79,5.59L20.93,9.89c-1.39,4.69,1.31,5.59,5.48,5.59"/><path class="cls-2" d="M153,28.33h7L161,25H149.89l-4.51,15.24h11.25l1-3.33h-7.15l.88-3h6.57l.83-2.82h-6.57Zm-7.32,1.4c1.42-4.84-1.39-4.86-5.37-4.86-4.52,0-7.54.75-9,5.79l-1.16,3.94c-1.47,4.94.76,5.75,5.61,5.75,5.5,0,7.1-.93,8.61-6.07l.79-2.66h-7l-.83,2.82h2.83c-.65,2.11-1.32,2.58-3.41,2.58s-3-.28-2.2-3l.74-2.48c.76-2.46,1.12-3.35,4.07-3.35,1.23,0,2.57,0,2.2,1.52Zm-22.52,4.92h-3.82l3.85-6.6h0Zm-.06,3,0,2.62h4.19L127.18,25h-6.24l-9.13,15.24h4.27l1.53-2.62Zm-11.87-9.08h4.15l1-3.54h-12.2l-1,3.54h3.94l-3.46,11.7h4.11Zm-21.54,0h.17l.89,11.7h7L102.3,25H98.19L95,36.7h-.16l-1-11.7H86.91L82.41,40.24h4.11ZM76.54,34.65H72.72L76.56,28h0Zm-.06,3,0,2.62H80.7L80.53,25H74.29L65.16,40.24h4.27L71,37.62Zm-17.55-.87h-.12L58.95,25H54.78l-.15,15.24H61L70,25H65.79ZM42.62,28.53h3.59c1.44,0,2,.41,1.39,2.38l-1,3.19c-.48,1.61-1.32,2.6-2.84,2.6H40.21Zm-7.57,11.7h8.36c4.29,0,6.24-2,7.46-6.14l1-3.19c1.28-4.33-.18-5.91-4.47-5.91h-7.8Z"/></g></g></svg>
